<svg width="28" height="28" viewBox="0 0 28 28" fill="none" xmlns="http://www.w3.org/2000/svg">
<path fill-rule="evenodd" clip-rule="evenodd" d="M6.00016 3.33331H22.0002C22.7074 3.33331 23.3857 3.61426 23.8858 4.11436C24.3859 4.61446 24.6668 5.29274 24.6668 5.99998V22C24.6668 22.7072 24.3859 23.3855 23.8858 23.8856C23.3857 24.3857 22.7074 24.6666 22.0002 24.6666H6.00016C5.29292 24.6666 4.61464 24.3857 4.11454 23.8856C3.61445 23.3855 3.3335 22.7072 3.3335 22V5.99998C3.3335 5.29274 3.61445 4.61446 4.11454 4.11436C4.61464 3.61426 5.29292 3.33331 6.00016 3.33331V3.33331Z" stroke="white" stroke-linecap="round" stroke-linejoin="round"/>
<path d="M3.3335 8.66663H24.6668" stroke="white" stroke-linecap="round" stroke-linejoin="round"/>
<path d="M14.0003 15.3333C14.7367 15.3333 15.3337 14.7363 15.3337 14C15.3337 13.2636 14.7367 12.6666 14.0003 12.6666C13.2639 12.6666 12.667 13.2636 12.667 14C12.667 14.7363 13.2639 15.3333 14.0003 15.3333Z" fill="white"/>
<path d="M8.66683 15.3333C9.40321 15.3333 10.0002 14.7363 10.0002 14C10.0002 13.2636 9.40321 12.6666 8.66683 12.6666C7.93045 12.6666 7.3335 13.2636 7.3335 14C7.3335 14.7363 7.93045 15.3333 8.66683 15.3333Z" fill="white"/>
<path d="M19.3333 15.3333C20.0697 15.3333 20.6667 14.7363 20.6667 14C20.6667 13.2636 20.0697 12.6666 19.3333 12.6666C18.597 12.6666 18 13.2636 18 14C18 14.7363 18.597 15.3333 19.3333 15.3333Z" fill="white"/>
<path d="M14.0003 20.6666C14.7367 20.6666 15.3337 20.0697 15.3337 19.3333C15.3337 18.5969 14.7367 17.9999 14.0003 17.9999C13.2639 17.9999 12.667 18.5969 12.667 19.3333C12.667 20.0697 13.2639 20.6666 14.0003 20.6666Z" fill="white"/>
<path d="M8.66683 20.6666C9.40321 20.6666 10.0002 20.0697 10.0002 19.3333C10.0002 18.5969 9.40321 17.9999 8.66683 17.9999C7.93045 17.9999 7.3335 18.5969 7.3335 19.3333C7.3335 20.0697 7.93045 20.6666 8.66683 20.6666Z" fill="white"/>
<path d="M19.3333 20.6666C20.0697 20.6666 20.6667 20.0697 20.6667 19.3333C20.6667 18.5969 20.0697 17.9999 19.3333 17.9999C18.597 17.9999 18 18.5969 18 19.3333C18 20.0697 18.597 20.6666 19.3333 20.6666Z" fill="white"/>
<rect x="3" y="3" width="22" height="6" rx="3" fill="white"/>
</svg>
