<svg width="32" height="32" viewBox="0 0 32 32" fill="none" xmlns="http://www.w3.org/2000/svg">
<path fill-rule="evenodd" clip-rule="evenodd" d="M23.641 8L23.9787 8.338L23.9518 8.4956L23.6471 8.44359C23.9518 8.4956 23.9519 8.49538 23.9518 8.4956L23.9517 8.49657L23.9514 8.49798L23.9507 8.50209L23.9482 8.51542C23.9461 8.52657 23.943 8.54218 23.9387 8.56205C23.9303 8.60178 23.9173 8.65856 23.8986 8.7307C23.8612 8.87497 23.8007 9.08079 23.7073 9.33466C23.5204 9.84239 23.2016 10.5428 22.6712 11.3272C21.6084 12.8991 19.7039 14.7969 16.3373 16.16L16.1798 16.2237L15.7135 15.8904L15.8049 15.6644C17.1673 12.2959 19.0688 10.3859 20.6442 9.31804C21.4305 8.78511 22.1327 8.4638 22.6418 8.27514C22.8963 8.1808 23.1027 8.11958 23.2473 8.0816C23.3196 8.06261 23.3766 8.04943 23.4164 8.04083C23.4363 8.03652 23.4519 8.03336 23.4631 8.03119L23.4764 8.02866L23.4805 8.02791L23.4819 8.02766C23.4822 8.02763 23.4829 8.0275 23.5358 8.33224L23.4829 8.0275L23.641 8ZM23.26 8.72031C23.1494 8.75302 23.0136 8.79703 22.8565 8.85524C22.3881 9.02885 21.7312 9.32849 20.991 9.8302C19.5939 10.7772 17.8898 12.4509 16.5968 15.379C19.539 14.0844 21.2143 12.3779 22.1591 10.9806C22.6581 10.2425 22.9553 9.58772 23.127 9.12092C23.1844 8.96507 23.2278 8.83023 23.26 8.72031Z" fill="white"/>
<path fill-rule="evenodd" clip-rule="evenodd" d="M15.8802 15.7229L16.2359 16.168L16.168 16.3358C14.8056 19.7042 12.9058 21.6127 11.3318 22.6791C10.5463 23.2113 9.84486 23.5318 9.33635 23.7199C9.08209 23.8139 8.87594 23.8749 8.73145 23.9127C8.6592 23.9316 8.60234 23.9447 8.56256 23.9533C8.54267 23.9576 8.52704 23.9607 8.51589 23.9629L8.50254 23.9654L8.49844 23.9661L8.49704 23.9664C8.49681 23.9664 8.49607 23.9666 8.44345 23.6618L8.49607 23.9666L8.33826 23.9938L8 23.6557L8.02745 23.4975L8.33205 23.5504C8.02745 23.4975 8.02741 23.4977 8.02745 23.4975L8.02762 23.4965L8.02787 23.4951L8.02861 23.491L8.03114 23.4777C8.03331 23.4665 8.03647 23.4508 8.04077 23.4309C8.04938 23.391 8.06255 23.334 8.08154 23.2615C8.1195 23.1167 8.18072 22.9099 8.27505 22.655C8.46372 22.1451 8.78505 21.4417 9.31811 20.6543C10.3862 19.0764 12.2968 17.1724 15.6667 15.8093L15.8802 15.7229ZM8.72 23.2738C8.75269 23.163 8.79671 23.027 8.8549 22.8697C9.02852 22.4005 9.3282 21.7425 9.83004 21.0012C10.7778 19.6011 12.4534 17.8936 15.3857 16.5995C14.0917 19.5409 12.3842 21.219 10.9852 22.1669C10.2458 22.6678 9.58975 22.9666 9.12195 23.1397C8.96556 23.1975 8.83025 23.2413 8.72 23.2738Z" fill="white"/>
<path fill-rule="evenodd" clip-rule="evenodd" d="M16.1073 15.7242L16.3332 15.8156C19.7031 17.1787 21.6138 19.0827 22.6819 20.6606C23.2149 21.448 23.5362 22.1514 23.7249 22.6613C23.8192 22.9162 23.8805 23.123 23.9184 23.2678C23.9374 23.3403 23.9506 23.3973 23.9592 23.4372C23.9635 23.4571 23.9666 23.4728 23.9688 23.484L23.9713 23.4973L23.9721 23.5015L23.9723 23.5029C23.9724 23.5031 23.9725 23.5038 23.6679 23.5567L23.9725 23.5038L23.9999 23.6619L23.6621 24L23.5044 23.9729L23.5567 23.6681C23.5044 23.9729 23.5046 23.973 23.5044 23.9729L23.5034 23.9727L23.502 23.9725L23.4979 23.9718L23.4845 23.9693C23.4734 23.9671 23.4578 23.964 23.4379 23.9597C23.3982 23.9512 23.3414 23.9382 23.2692 23.9194C23.1248 23.8817 22.9189 23.821 22.6649 23.7272C22.1569 23.5397 21.4561 23.22 20.6714 22.6885C19.0989 21.6237 17.2005 19.7167 15.8381 16.3483L15.7744 16.1908L16.1073 15.7242ZM23.2801 23.2804C23.17 23.248 23.035 23.2045 22.8789 23.1469C22.4117 22.9744 21.7565 22.6763 21.0179 22.1762C19.6198 21.2294 17.9126 19.5517 16.6185 16.6077C19.5482 17.9015 21.2226 19.6081 22.1699 21.0075C22.6718 21.7488 22.9714 22.4068 23.1451 22.876C23.2033 23.0335 23.2473 23.1696 23.2801 23.2804Z" fill="white"/>
<path fill-rule="evenodd" clip-rule="evenodd" d="M8.52413 8.04523L8.47119 8.34997C8.52413 8.04523 8.5239 8.04519 8.52413 8.04523L8.52509 8.0454L8.52649 8.04565L8.5306 8.04639L8.54395 8.04892C8.55511 8.05109 8.57075 8.05425 8.59066 8.05856C8.63048 8.06716 8.6874 8.08035 8.75972 8.09933C8.90436 8.13731 9.11073 8.19853 9.36527 8.29287C9.87433 8.48154 10.5766 8.80284 11.3628 9.33578C12.9382 10.4036 14.8397 12.3137 16.2021 15.6821L16.2935 15.9081L15.8272 16.2414L15.6698 16.1777C12.3032 14.8146 10.3986 12.9168 9.33584 11.345C8.80544 10.5605 8.4866 9.86012 8.29976 9.35239C8.20634 9.09852 8.14587 8.8927 8.10843 8.74843C8.08971 8.67629 8.07674 8.61951 8.06828 8.57978C8.06405 8.55991 8.06095 8.5443 8.05882 8.53316L8.05633 8.51982L8.0556 8.51571L8.05536 8.5143C8.05532 8.51408 8.05519 8.51334 8.35994 8.46133L8.05519 8.51334L8.02832 8.35573L8.366 8.01773L8.52413 8.04523ZM8.41763 8.6546C8.41759 8.65459 8.41752 8.65458 8.41763 8.6546ZM8.74706 8.73805C8.77927 8.84796 8.82263 8.98281 8.87998 9.13865C9.05176 9.60545 9.34889 10.2602 9.84797 10.9983C10.7927 12.3956 12.4681 14.1021 15.4102 15.3967C14.1172 12.4686 12.4132 10.7949 11.016 9.84793C10.2758 9.34622 9.61894 9.04658 9.1505 8.87297C8.99345 8.81477 8.85764 8.77075 8.74706 8.73805Z" fill="white"/>
</svg>
