<svg width="319" height="277" viewBox="0 0 319 277" fill="none" xmlns="http://www.w3.org/2000/svg">
<g opacity="0.7">
<path d="M218.362 23.6949C213.664 22.1857 208.424 23.3993 207.992 23.5004L201.689 72.0237C201.69 72.0614 201.234 88.5806 199.805 97.1984C198.843 103.095 195.017 106.717 192.123 109.647C190.675 111.102 189.49 112.403 188.944 113.656C188.417 114.908 188.473 116.095 189.591 117.66C191.865 120.81 195.725 121.729 199.082 121.846C202.175 121.948 204.541 121.402 204.936 121.32L211.239 72.7778C211.238 72.7401 211.694 56.2209 213.122 47.6031C214.104 41.7066 217.911 38.084 220.805 35.1544C222.252 33.6991 223.438 32.3986 223.965 31.1462C224.492 29.8939 224.435 28.7072 223.298 27.1418C222.045 25.3709 220.276 24.3056 218.362 23.6949Z" stroke="white" stroke-miterlimit="10"/>
<path d="M205.273 24.3726C203.492 25.0227 193.905 29.0569 191.015 41.807C190.256 45.1176 189.166 53.6547 189.166 53.6547L185.317 83.2711C187.097 82.621 196.684 78.5868 199.575 65.8556C200.333 62.5262 201.423 53.9891 201.423 53.9891L205.273 24.3726Z" stroke="white" stroke-miterlimit="10"/>
<path d="M227.765 61.7353C225.984 62.3854 216.397 66.4196 213.507 79.1696C212.749 82.4802 211.658 91.0173 211.658 91.0173L207.809 120.634C209.589 119.984 219.177 115.949 222.067 103.218C222.825 99.9077 223.916 91.3706 223.916 91.3706L227.765 61.7353Z" stroke="white" stroke-miterlimit="10"/>
<path d="M228.778 57.8175C232.055 55.2965 233.995 51.6092 233.935 47.7837C233.928 47.3691 233.903 46.9548 233.84 46.56C233.222 42.0647 229.44 38.8823 225.396 39.4362C221.334 39.9904 218.552 44.068 219.15 48.5636C219.215 49.0526 219.317 49.5411 219.475 50.0475C220.433 53.3876 222.889 56.1762 226.196 57.8959L227.698 58.6639L228.778 57.8175Z" stroke="white" stroke-miterlimit="10"/>
<path d="M184.357 86.9807C181.08 89.5017 179.14 93.1891 179.2 97.0145C179.207 97.4291 179.232 97.8434 179.295 98.2383C179.912 102.734 183.695 105.916 187.739 105.362C191.801 104.808 194.583 100.73 193.985 96.2347C193.92 95.7456 193.818 95.2571 193.66 94.7507C192.702 91.4106 190.245 88.622 186.938 86.9023L185.437 86.1343L184.357 86.9807Z" stroke="white" stroke-miterlimit="10"/>
<path d="M208.877 19.8673C212.155 17.3463 214.095 13.659 214.034 9.83352C214.028 9.41893 214.002 9.00465 213.94 8.6098C213.341 4.11426 209.559 0.931846 205.496 1.48602C201.433 2.0402 198.651 6.11784 199.25 10.6134C199.314 11.1025 199.416 11.5909 199.575 12.0974C200.532 15.4374 202.989 18.2261 206.296 19.9457L207.797 20.7137L208.877 19.8673Z" stroke="white" stroke-miterlimit="10"/>
<path d="M206.896 124.889C203.618 127.41 201.678 131.098 201.739 134.923C201.745 135.338 201.771 135.752 201.833 136.147C202.451 140.642 206.233 143.824 210.277 143.271C214.34 142.716 217.122 138.639 216.523 134.143C216.459 133.654 216.357 133.166 216.198 132.659C215.241 129.319 212.784 126.531 209.477 124.811L207.976 124.043L206.896 124.889Z" stroke="white" stroke-miterlimit="10"/>
<path d="M259.612 95.0284C254.914 93.5192 249.674 94.7328 249.242 94.8338L242.939 143.357C242.94 143.395 242.484 159.914 241.055 168.532C240.093 174.428 236.267 178.051 233.373 180.981C231.925 182.436 230.74 183.736 230.194 184.989C229.667 186.241 229.723 187.428 230.841 188.994C233.115 192.143 236.975 193.063 240.332 193.179C243.425 193.281 245.791 192.735 246.186 192.654L252.489 144.111C252.488 144.074 252.944 127.554 254.372 118.937C255.354 113.04 259.161 109.418 262.055 106.488C263.502 105.033 264.688 103.732 265.215 102.48C265.742 101.227 265.685 100.041 264.548 98.4753C263.295 96.7044 261.526 95.6391 259.612 95.0284Z" stroke="white" stroke-miterlimit="10"/>
<path d="M246.523 95.7061C244.742 96.3562 235.155 100.39 232.265 113.14C231.506 116.451 230.416 124.988 230.416 124.988L226.567 154.605C228.347 153.955 237.934 149.92 240.825 137.189C241.583 133.86 242.673 125.323 242.673 125.323L246.523 95.7061Z" stroke="white" stroke-miterlimit="10"/>
<path d="M269.015 133.069C267.234 133.719 257.647 137.753 254.757 150.503C253.999 153.814 252.908 162.351 252.908 162.351L249.059 191.967C250.839 191.317 260.427 187.283 263.317 174.552C264.075 171.241 265.166 162.704 265.166 162.704L269.015 133.069Z" stroke="white" stroke-miterlimit="10"/>
<path d="M270.028 129.151C273.305 126.63 275.245 122.943 275.185 119.117C275.178 118.703 275.153 118.288 275.09 117.893C274.472 113.398 270.69 110.216 266.646 110.77C262.584 111.324 259.802 115.402 260.4 119.897C260.465 120.386 260.567 120.875 260.725 121.381C261.683 124.721 264.139 127.51 267.446 129.229L268.948 129.997L270.028 129.151Z" stroke="white" stroke-miterlimit="10"/>
<path d="M225.607 158.314C222.33 160.835 220.39 164.523 220.45 168.348C220.457 168.763 220.482 169.177 220.545 169.572C221.162 174.067 224.945 177.249 228.989 176.696C233.051 176.141 235.833 172.064 235.235 167.568C235.17 167.079 235.068 166.591 234.91 166.084C233.952 162.744 231.495 159.955 228.188 158.236L226.687 157.468L225.607 158.314Z" stroke="white" stroke-miterlimit="10"/>
<path d="M250.127 91.2008C253.405 88.6798 255.345 84.9925 255.284 81.167C255.278 80.7524 255.252 80.3381 255.19 79.9433C254.591 75.4478 250.809 72.2653 246.746 72.8195C242.683 73.3737 239.901 77.4513 240.5 81.9469C240.564 82.4359 240.666 82.9244 240.825 83.4308C241.782 86.7709 244.239 89.5596 247.546 91.2792L249.047 92.0472L250.127 91.2008Z" stroke="white" stroke-miterlimit="10"/>
<path d="M248.146 196.223C244.868 198.744 242.928 202.431 242.989 206.257C242.995 206.671 243.021 207.085 243.083 207.48C243.701 211.976 247.483 215.158 251.527 214.604C255.59 214.05 258.372 209.972 257.773 205.477C257.709 204.988 257.607 204.499 257.448 203.993C256.491 200.653 254.034 197.864 250.727 196.144L249.226 195.376L248.146 196.223Z" stroke="white" stroke-miterlimit="10"/>
<path d="M300.925 156.171C296.226 154.662 290.986 155.876 290.554 155.977L284.251 204.5C284.252 204.538 283.796 221.057 282.368 229.675C281.405 235.571 277.579 239.194 274.685 242.123C273.238 243.579 272.052 244.879 271.506 246.132C270.979 247.384 271.036 248.571 272.154 250.137C274.428 253.286 278.288 254.206 281.645 254.322C284.737 254.424 287.104 253.878 287.498 253.796L293.801 205.254C293.801 205.217 294.256 188.697 295.685 180.079C296.666 174.183 300.473 170.56 303.367 167.631C304.815 166.175 306 164.875 306.527 163.623C307.054 162.37 306.998 161.184 305.861 159.618C304.608 157.847 302.838 156.782 300.925 156.171Z" stroke="white" stroke-miterlimit="10"/>
<path d="M287.835 156.849C286.055 157.499 276.467 161.533 273.577 174.283C272.819 177.594 271.728 186.131 271.728 186.131L267.879 215.748C269.66 215.097 279.247 211.063 282.137 198.332C282.895 195.003 283.986 186.465 283.986 186.465L287.835 156.849Z" stroke="white" stroke-miterlimit="10"/>
<path d="M310.327 194.212C308.547 194.862 298.96 198.896 296.07 211.646C295.311 214.957 294.221 223.494 294.221 223.494L290.372 253.11C292.152 252.46 301.739 248.426 304.63 235.695C305.388 232.384 306.478 223.847 306.478 223.847L310.327 194.212Z" stroke="white" stroke-miterlimit="10"/>
<path d="M311.34 190.294C314.618 187.773 316.558 184.086 316.497 180.26C316.491 179.845 316.465 179.431 316.403 179.036C315.785 174.541 312.003 171.359 307.959 171.913C303.896 172.467 301.114 176.544 301.713 181.04C301.777 181.529 301.879 182.017 302.038 182.524C302.995 185.864 305.452 188.653 308.759 190.372L310.26 191.14L311.34 190.294Z" stroke="white" stroke-miterlimit="10"/>
<path d="M266.92 219.457C263.642 221.978 261.702 225.665 261.763 229.491C261.769 229.906 261.795 230.32 261.857 230.715C262.475 235.21 266.257 238.392 270.301 237.838C274.364 237.284 277.146 233.207 276.547 228.711C276.483 228.222 276.381 227.734 276.222 227.227C275.265 223.887 272.808 221.098 269.501 219.379L268 218.611L266.92 219.457Z" stroke="white" stroke-miterlimit="10"/>
<path d="M291.44 152.344C294.717 149.823 296.657 146.135 296.597 142.31C296.59 141.895 296.565 141.481 296.502 141.086C295.903 136.591 292.121 133.408 288.058 133.962C283.996 134.517 281.214 138.594 281.812 143.09C281.877 143.579 281.979 144.067 282.137 144.574C283.095 147.914 285.552 150.702 288.858 152.422L290.36 153.19L291.44 152.344Z" stroke="white" stroke-miterlimit="10"/>
<path d="M289.458 257.366C286.181 259.887 284.241 263.574 284.301 267.399C284.308 267.814 284.333 268.228 284.396 268.623C285.014 273.118 288.796 276.301 292.84 275.747C296.902 275.193 299.684 271.115 299.086 266.62C299.021 266.131 298.919 265.642 298.761 265.136C297.803 261.796 295.347 259.007 292.04 257.287L290.538 256.519L289.458 257.366Z" stroke="white" stroke-miterlimit="10"/>
</g>
<g opacity="0.7">
<path d="M41.6629 23.6949C36.9645 22.1857 31.7247 23.3993 31.2927 23.5004L24.9897 72.0237C24.9903 72.0614 24.5347 88.5806 23.1061 97.1984C22.1436 103.095 18.3178 106.717 15.4235 109.647C13.9762 111.102 12.7904 112.403 12.2446 113.656C11.7178 114.908 11.7742 116.095 12.8921 117.66C15.1661 120.81 19.0258 121.729 22.3828 121.846C25.4757 121.948 27.8421 121.402 28.2367 121.32L34.5394 72.7778C34.5388 72.7401 34.9945 56.2209 36.423 47.6031C37.4044 41.7066 41.2113 38.084 44.1056 35.1544C45.5529 33.6991 46.7388 32.3986 47.2656 31.1462C47.7925 29.8939 47.7361 28.7072 46.5993 27.1418C45.3461 25.3709 43.5763 24.3056 41.6629 23.6949Z" stroke="white" stroke-miterlimit="10"/>
<path d="M28.5733 24.3726C26.7929 25.0227 17.2057 29.0569 14.3155 41.807C13.5573 45.1176 12.4667 53.6547 12.4667 53.6547L8.61746 83.2711C10.3979 82.621 19.9851 78.5868 22.8755 65.8556C23.6335 62.5262 24.7241 53.9891 24.7241 53.9891L28.5733 24.3726Z" stroke="white" stroke-miterlimit="10"/>
<path d="M51.0657 61.7353C49.2853 62.3854 39.698 66.4196 36.8079 79.1696C36.0496 82.4802 34.9591 91.0173 34.9591 91.0173L31.1098 120.634C32.8902 119.984 42.4774 115.949 45.3679 103.218C46.1262 99.9077 47.2167 91.3706 47.2167 91.3706L51.0657 61.7353Z" stroke="white" stroke-miterlimit="10"/>
<path d="M52.0783 57.8175C55.356 55.2965 57.2959 51.6092 57.2355 47.7837C57.229 47.3691 57.2036 46.9548 57.1408 46.56C56.5233 42.0647 52.7409 38.8823 48.697 39.4362C44.6343 39.9904 41.8524 44.068 42.4511 48.5636C42.5153 49.0526 42.6173 49.5411 42.7761 50.0475C43.7335 53.3876 46.1903 56.1762 49.4972 57.8959L50.9984 58.6639L52.0783 57.8175Z" stroke="white" stroke-miterlimit="10"/>
<path d="M7.65812 86.9807C4.38041 89.5017 2.44055 93.1891 2.5009 97.0145C2.50744 97.4291 2.53283 97.8434 2.5956 98.2383C3.21315 102.734 6.99552 105.916 11.0394 105.362C15.1021 104.808 17.884 100.73 17.2853 96.2347C17.2211 95.7456 17.1191 95.2571 16.9603 94.7507C16.0029 91.4106 13.5462 88.622 10.2392 86.9023L8.73803 86.1343L7.65812 86.9807Z" stroke="white" stroke-miterlimit="10"/>
<path d="M32.1779 19.8673C35.4556 17.3463 37.3954 13.659 37.3351 9.83352C37.3286 9.41893 37.3032 9.00465 37.2404 8.6098C36.6417 4.11426 32.8593 0.931846 28.7966 1.48602C24.7339 2.0402 21.952 6.11784 22.5507 10.6134C22.6149 11.1025 22.7169 11.5909 22.8757 12.0974C23.8331 15.4374 26.2898 18.2261 29.5968 19.9457L31.098 20.7137L32.1779 19.8673Z" stroke="white" stroke-miterlimit="10"/>
<path d="M30.1968 124.889C26.9191 127.41 24.9792 131.098 25.0396 134.923C25.0461 135.338 25.0715 135.752 25.1343 136.147C25.7518 140.642 29.5342 143.824 33.578 143.271C37.6408 142.716 40.4227 138.639 39.824 134.143C39.7597 133.654 39.6578 133.166 39.499 132.659C38.5415 129.319 36.0848 126.531 32.7779 124.811L31.2767 124.043L30.1968 124.889Z" stroke="white" stroke-miterlimit="10"/>
<path d="M82.9129 95.0284C78.2145 93.5192 72.9747 94.7328 72.5427 94.8338L66.2397 143.357C66.2403 143.395 65.7847 159.914 64.3561 168.532C63.3936 174.428 59.5678 178.051 56.6735 180.981C55.2262 182.436 54.0404 183.736 53.4946 184.989C52.9678 186.241 53.0242 187.428 54.1421 188.994C56.4161 192.143 60.2758 193.063 63.6328 193.179C66.7257 193.281 69.0921 192.735 69.4867 192.654L75.7894 144.111C75.7888 144.074 76.2445 127.554 77.673 118.937C78.6544 113.04 82.4613 109.418 85.3556 106.488C86.8029 105.033 87.9888 103.732 88.5156 102.48C89.0425 101.227 88.9861 100.041 87.8493 98.4753C86.5961 96.7044 84.8263 95.6391 82.9129 95.0284Z" stroke="white" stroke-miterlimit="10"/>
<path d="M69.8233 95.7061C68.0429 96.3562 58.4557 100.39 55.5655 113.14C54.8073 116.451 53.7167 124.988 53.7167 124.988L49.8675 154.605C51.6479 153.955 61.2351 149.92 64.1255 137.189C64.8835 133.86 65.9741 125.323 65.9741 125.323L69.8233 95.7061Z" stroke="white" stroke-miterlimit="10"/>
<path d="M92.3157 133.069C90.5353 133.719 80.948 137.753 78.0579 150.503C77.2996 153.814 76.2091 162.351 76.2091 162.351L72.3598 191.967C74.1402 191.317 83.7274 187.283 86.6179 174.552C87.3762 171.241 88.4667 162.704 88.4667 162.704L92.3157 133.069Z" stroke="white" stroke-miterlimit="10"/>
<path d="M93.3283 129.151C96.606 126.63 98.5459 122.943 98.4855 119.117C98.479 118.703 98.4536 118.288 98.3908 117.893C97.7733 113.398 93.9909 110.216 89.947 110.77C85.8843 111.324 83.1024 115.402 83.7011 119.897C83.7653 120.386 83.8673 120.875 84.0261 121.381C84.9835 124.721 87.4403 127.51 90.7472 129.229L92.2484 129.997L93.3283 129.151Z" stroke="white" stroke-miterlimit="10"/>
<path d="M48.9081 158.314C45.6304 160.835 43.6906 164.523 43.7509 168.348C43.7574 168.763 43.7828 169.177 43.8456 169.572C44.4632 174.067 48.2455 177.249 52.2894 176.696C56.3521 176.141 59.134 172.064 58.5353 167.568C58.4711 167.079 58.3691 166.591 58.2103 166.084C57.2529 162.744 54.7962 159.955 51.4892 158.236L49.988 157.468L48.9081 158.314Z" stroke="white" stroke-miterlimit="10"/>
<path d="M73.4279 91.2008C76.7056 88.6798 78.6454 84.9925 78.5851 81.167C78.5786 80.7524 78.5532 80.3381 78.4904 79.9433C77.8917 75.4478 74.1093 72.2653 70.0466 72.8195C65.9839 73.3737 63.202 77.4513 63.8007 81.9469C63.8649 82.4359 63.9669 82.9244 64.1257 83.4308C65.0831 86.7709 67.5398 89.5596 70.8468 91.2792L72.348 92.0472L73.4279 91.2008Z" stroke="white" stroke-miterlimit="10"/>
<path d="M71.4468 196.223C68.1691 198.744 66.2292 202.431 66.2896 206.257C66.2961 206.671 66.3215 207.085 66.3843 207.48C67.0018 211.976 70.7842 215.158 74.828 214.604C78.8908 214.05 81.6727 209.972 81.074 205.477C81.0097 204.988 80.9078 204.499 80.749 203.993C79.7915 200.653 77.3348 197.864 74.0279 196.144L72.5267 195.376L71.4468 196.223Z" stroke="white" stroke-miterlimit="10"/>
<path d="M124.225 156.171C119.527 154.662 114.287 155.876 113.855 155.977L107.552 204.5C107.553 204.538 107.097 221.057 105.669 229.675C104.706 235.571 100.88 239.194 97.986 242.123C96.5387 243.579 95.3529 244.879 94.8071 246.132C94.2803 247.384 94.3367 248.571 95.4546 250.137C97.7286 253.286 101.588 254.206 104.945 254.322C108.038 254.424 110.405 253.878 110.799 253.796L117.102 205.254C117.101 205.217 117.557 188.697 118.985 180.079C119.967 174.183 123.774 170.56 126.668 167.631C128.115 166.175 129.301 164.875 129.828 163.623C130.355 162.37 130.299 161.184 129.162 159.618C127.909 157.847 126.139 156.782 124.225 156.171Z" stroke="white" stroke-miterlimit="10"/>
<path d="M111.136 156.849C109.355 157.499 99.7682 161.533 96.878 174.283C96.1198 177.594 95.0292 186.131 95.0292 186.131L91.18 215.748C92.9604 215.097 102.548 211.063 105.438 198.332C106.196 195.003 107.287 186.465 107.287 186.465L111.136 156.849Z" stroke="white" stroke-miterlimit="10"/>
<path d="M133.628 194.212C131.848 194.862 122.261 198.896 119.37 211.646C118.612 214.957 117.522 223.494 117.522 223.494L113.672 253.11C115.453 252.46 125.04 248.426 127.93 235.695C128.689 232.384 129.779 223.847 129.779 223.847L133.628 194.212Z" stroke="white" stroke-miterlimit="10"/>
<path d="M134.641 190.294C137.918 187.773 139.858 184.086 139.798 180.26C139.791 179.845 139.766 179.431 139.703 179.036C139.086 174.541 135.303 171.359 131.26 171.913C127.197 172.467 124.415 176.544 125.014 181.04C125.078 181.529 125.18 182.017 125.339 182.524C126.296 185.864 128.753 188.653 132.06 190.372L133.561 191.14L134.641 190.294Z" stroke="white" stroke-miterlimit="10"/>
<path d="M90.2206 219.457C86.9429 221.978 85.0031 225.665 85.0634 229.491C85.0699 229.906 85.0953 230.32 85.1581 230.715C85.7757 235.21 89.558 238.392 93.6019 237.838C97.6646 237.284 100.447 233.207 99.8478 228.711C99.7836 228.222 99.6816 227.734 99.5228 227.227C98.5654 223.887 96.1087 221.098 92.8017 219.379L91.3005 218.611L90.2206 219.457Z" stroke="white" stroke-miterlimit="10"/>
<path d="M114.74 152.344C118.018 149.823 119.958 146.135 119.898 142.31C119.891 141.895 119.866 141.481 119.803 141.086C119.204 136.591 115.422 133.408 111.359 133.962C107.296 134.517 104.514 138.594 105.113 143.09C105.177 143.579 105.279 144.067 105.438 144.574C106.396 147.914 108.852 150.702 112.159 152.422L113.66 153.19L114.74 152.344Z" stroke="white" stroke-miterlimit="10"/>
<path d="M112.759 257.366C109.482 259.887 107.542 263.574 107.602 267.399C107.609 267.814 107.634 268.228 107.697 268.623C108.314 273.118 112.097 276.301 116.141 275.747C120.203 275.193 122.985 271.115 122.386 266.62C122.322 266.131 122.22 265.642 122.061 265.136C121.104 261.796 118.647 259.007 115.34 257.287L113.839 256.519L112.759 257.366Z" stroke="white" stroke-miterlimit="10"/>
</g>
</svg>
